<svg width="144" height="32" viewBox="0 0 144 32" fill="none" xmlns="http://www.w3.org/2000/svg">
<g id="Logo">
<path id="Vector" d="M25.162 2.6665C27.6547 3.09826 30.0391 3.8565 32.269 4.89983C36.168 10.7224 38.1053 17.2895 37.39 24.8638C34.4068 27.0944 31.5131 28.4476 28.6681 29.3332C27.9636 28.3674 27.3404 27.3379 26.8012 26.2586C27.8281 25.8684 28.8144 25.3869 29.7464 24.8251C29.5026 24.6424 29.2615 24.4515 29.0257 24.255C23.4252 26.9062 17.2664 26.9062 11.5982 24.255C11.3652 24.4515 11.124 24.6424 10.8775 24.8251C11.8068 25.3841 12.7903 25.8656 13.8172 26.2558C13.2781 27.3379 12.6522 28.3646 11.9504 29.3304C9.10815 28.4449 6.2171 27.0916 3.23393 24.8638C2.6243 18.33 3.84357 11.7021 8.34135 4.90536C10.5713 3.85929 12.9584 3.09826 15.4538 2.6665C15.7627 3.22 16.1285 3.96445 16.375 4.55667C18.9762 4.15816 21.6017 4.15816 24.2516 4.55667C24.4981 3.96445 24.8558 3.22 25.162 2.6665ZM93.5177 11.1962C95.4142 11.1962 96.9885 11.603 98.2404 12.4166V15.9616C97.7989 15.6517 97.2837 15.3998 96.6958 15.2061C96.1078 15.0124 95.4793 14.9155 94.8074 14.9155C93.6315 14.9155 92.713 15.1342 92.0491 15.5742C91.3851 16.0142 91.0522 16.587 91.0522 17.2983C91.0522 17.9956 91.3743 18.5658 92.0193 19.0141C92.6644 19.4596 93.5989 19.6838 94.8262 19.6838C95.4576 19.6838 96.0809 19.5897 96.6958 19.4043C97.3082 19.2161 97.8367 18.9864 98.2782 18.7152V22.144C96.8884 22.9963 95.2763 23.4225 93.4417 23.4225C91.8975 23.417 90.5805 23.1458 89.4939 22.6034C88.4078 22.0609 87.5866 21.3249 87.0393 20.395C86.492 19.4651 86.2157 18.4191 86.2157 17.2568C86.2157 16.0945 86.5 15.0539 87.069 14.1379C87.6381 13.2219 88.4725 12.5024 89.5728 11.9793C90.6726 11.4563 91.9868 11.1962 93.5177 11.1962ZM79.2731 11.1935C80.3352 11.1935 81.3079 11.3097 82.1943 11.5422C83.0802 11.7747 83.8117 12.0708 84.3944 12.4333V15.4747C83.798 15.1122 83.1151 14.8271 82.335 14.6112C81.5573 14.3982 80.7583 14.293 79.9342 14.293C78.7447 14.293 78.1516 14.5005 78.1516 14.9129C78.1516 15.1066 78.2437 15.2505 78.4278 15.3474C78.612 15.4442 78.9506 15.5439 79.4412 15.649L81.3377 15.9977C82.5763 16.2164 83.5 16.601 84.1068 17.1489C84.7141 17.6969 85.0172 18.5078 85.0172 19.5815C85.0172 20.7576 84.5162 21.6903 83.5108 22.3821C82.5055 23.074 81.0803 23.4199 79.2325 23.4199C78.1459 23.4171 77.0896 23.2815 76.0653 23.0103C75.0411 22.7391 74.1169 22.3461 73.2962 21.8286V18.6129C73.9167 19.1027 74.7483 19.5068 75.7914 19.825C76.8346 20.1405 77.8428 20.2982 78.8179 20.2982C79.2731 20.2982 79.6174 20.2374 79.8502 20.1156C80.0835 19.9938 80.2001 19.8472 80.2001 19.6784C80.2001 19.4846 80.1378 19.3241 80.0103 19.194C79.8828 19.064 79.6363 18.956 79.2708 18.8647L76.9947 18.3417C75.6913 18.0318 74.7672 17.6028 74.2175 17.0521C73.6674 16.5041 73.3935 15.7846 73.3935 14.8935C73.3935 14.1435 73.632 13.4932 74.1146 12.937C74.5939 12.3807 75.2767 11.9518 76.1626 11.6501C77.049 11.3457 78.0836 11.1935 79.2731 11.1935ZM140.912 9.08197V23.0297H136.265V20.492C135.872 21.4467 135.276 22.1746 134.474 22.6727C133.672 23.1681 132.68 23.4171 131.505 23.4171C130.454 23.4171 129.538 23.157 128.754 22.6339C127.972 22.1109 127.368 21.3942 126.942 20.4837C126.519 19.5732 126.305 18.5437 126.305 17.3925C126.292 16.2053 126.517 15.1398 126.98 14.1961C127.441 13.2524 128.093 12.5163 128.933 11.9877C129.774 11.4592 130.733 11.1935 131.808 11.1935C133.984 11.1935 135.455 12.1423 136.225 14.0374L136.265 14.1377L136.265 9.08197H140.912ZM106.851 11.1907C108.355 11.1907 109.653 11.4481 110.739 11.9656C111.826 12.4831 112.655 13.1916 113.224 14.0965C113.793 15.0015 114.077 16.0392 114.077 17.2154C114.077 18.3777 113.793 19.4293 113.224 20.3729C112.655 21.3166 111.823 22.0583 110.728 22.6007C109.634 23.1431 108.341 23.4143 106.849 23.4143C105.355 23.4143 104.063 23.1459 102.971 22.6035C101.877 22.0611 101.042 21.3194 100.467 20.3757C99.8932 19.432 99.6032 18.3804 99.6032 17.2181C99.6032 16.0558 99.8903 15.018 100.467 14.1076C101.044 13.1971 101.874 12.4831 102.963 11.9656C104.049 11.4481 105.347 11.1907 106.851 11.1907ZM71.2213 14.3676V23.0905H66.5883V14.3676C68.0078 14.9931 69.7692 15.0207 71.2213 14.3676ZM123.747 11.4453C124.417 11.4453 124.991 11.6003 125.473 11.9102V16.0945C124.991 15.7707 124.368 15.6102 123.596 15.6102C122.585 15.6102 121.805 15.923 121.263 16.5484C120.718 17.1738 120.447 18.1479 120.447 19.4652V23.0296H115.8V11.6971H120.353V15.3003C120.604 13.983 121.014 13.0117 121.577 12.3834C122.138 11.758 122.864 11.4453 123.747 11.4453ZM56.776 9.46938C58.5591 9.46938 60.0655 9.75442 61.3013 10.3217C62.5338 10.889 63.4579 11.6805 64.0704 12.6934C64.6824 13.7063 64.9912 14.8658 64.9912 16.172C64.9912 17.4506 64.6715 18.6101 64.0322 19.6478C63.3928 20.6884 62.42 21.5103 61.1115 22.1164C59.8029 22.7224 58.1823 23.0268 56.2452 23.0268H49.3792V9.46938H56.776ZM14.5895 13.797C12.8581 13.797 11.4925 15.3883 11.4925 17.3227C11.4925 19.2571 12.8879 20.8456 14.5895 20.8456C16.3209 20.8456 17.6891 19.2571 17.6864 17.3227C17.7162 15.3855 16.3209 13.797 14.5895 13.797ZM26.0344 13.797C24.303 13.797 22.9375 15.3883 22.9375 17.3227C22.9375 19.2571 24.3329 20.8456 26.0344 20.8456C27.7658 20.8456 29.1314 19.2571 29.1314 17.3227C29.1612 15.3855 27.7658 13.797 26.0344 13.797ZM106.849 14.7607C106.038 14.7607 105.404 14.9904 104.941 15.4497C104.48 15.9092 104.25 16.5235 104.25 17.2984C104.25 18.0733 104.48 18.6959 104.941 19.1664C105.402 19.6368 106.038 19.8748 106.849 19.8748C107.645 19.8721 108.274 19.6368 108.734 19.1664C109.195 18.6959 109.428 18.0733 109.428 17.2984C109.428 16.5235 109.197 15.9064 108.734 15.4497C108.274 14.9904 107.645 14.7607 106.849 14.7607ZM133.705 14.8188C132.922 14.8188 132.296 15.0485 131.827 15.5079C131.358 15.9673 131.125 16.5623 131.125 17.2984C131.125 18.0345 131.358 18.6351 131.827 19.1C132.296 19.5649 132.914 19.7974 133.686 19.7974C134.469 19.7946 135.097 19.5594 135.572 19.0889C136.046 18.6184 136.282 18.0069 136.282 17.2597C136.282 16.5374 136.051 15.9479 135.591 15.4968C135.13 15.0458 134.499 14.8188 133.705 14.8188ZM56.4374 12.9175H54.1235V19.5815H56.1692C57.3696 19.5815 58.2937 19.2743 58.9383 18.6627C59.5834 18.0483 59.9059 17.2126 59.9059 16.1526C59.9059 15.1702 59.6183 14.387 59.0441 13.8003C58.4699 13.2136 57.6 12.9175 56.4374 12.9175ZM68.9069 8.65291C70.1862 8.65291 71.2236 9.60444 71.2236 10.7782C71.2236 11.952 70.1862 12.9036 68.9069 12.9036C67.6272 12.9036 66.5902 11.952 66.5902 10.7782C66.5902 9.60444 67.6272 8.65291 68.9069 8.65291Z" fill="#B8B9B9"/>
</g>
</svg>
